<svg width="24" height="24" viewBox="0 0 24 24" fill="none" xmlns="http://www.w3.org/2000/svg">
<g id="icon/action/search_24px">
<g id="icon/action/search_24px_2">
<mask id="path-1-inside-1" fill="white">
<path fill-rule="evenodd" clip-rule="evenodd" d="M14.965 14.255H15.755L20.745 19.255L19.255 20.745L14.255 15.755V14.965L13.985 14.685C12.845 15.665 11.365 16.255 9.755 16.255C6.165 16.255 3.255 13.345 3.255 9.755C3.255 6.165 6.165 3.255 9.755 3.255C13.345 3.255 16.255 6.165 16.255 9.755C16.255 11.365 15.665 12.845 14.685 13.985L14.965 14.255ZM5.255 9.755C5.255 12.245 7.26501 14.255 9.755 14.255C12.245 14.255 14.255 12.245 14.255 9.755C14.255 7.26501 12.245 5.255 9.755 5.255C7.26501 5.255 5.255 7.26501 5.255 9.755Z"/>
</mask>
<path fill-rule="evenodd" clip-rule="evenodd" d="M14.965 14.255H15.755L20.745 19.255L19.255 20.745L14.255 15.755V14.965L13.985 14.685C12.845 15.665 11.365 16.255 9.755 16.255C6.165 16.255 3.255 13.345 3.255 9.755C3.255 6.165 6.165 3.255 9.755 3.255C13.345 3.255 16.255 6.165 16.255 9.755C16.255 11.365 15.665 12.845 14.685 13.985L14.965 14.255ZM5.255 9.755C5.255 12.245 7.26501 14.255 9.755 14.255C12.245 14.255 14.255 12.245 14.255 9.755C14.255 7.26501 12.245 5.255 9.755 5.255C7.26501 5.255 5.255 7.26501 5.255 9.755Z" fill="black" fill-opacity="0.54"/>
<path d="M15.755 14.255L16.4628 13.5486L16.1698 13.255H15.755V14.255ZM14.965 14.255L14.2709 14.9748L14.5614 15.255H14.965V14.255ZM20.745 19.255L21.4521 19.9621L22.1585 19.2557L21.4528 18.5486L20.745 19.255ZM19.255 20.745L18.5486 21.4528L19.2557 22.1585L19.9621 21.4521L19.255 20.745ZM14.255 15.755H13.255V16.1698L13.5486 16.4628L14.255 15.755ZM14.255 14.965H15.255V14.5614L14.9748 14.2709L14.255 14.965ZM13.985 14.685L14.7048 13.9909L14.0493 13.311L13.3331 13.9267L13.985 14.685ZM14.685 13.985L13.9267 13.3331L13.311 14.0493L13.9909 14.7048L14.685 13.985ZM15.755 13.255H14.965V15.255H15.755V13.255ZM21.4528 18.5486L16.4628 13.5486L15.0472 14.9614L20.0372 19.9614L21.4528 18.5486ZM19.9621 21.4521L21.4521 19.9621L20.0379 18.5479L18.5479 20.0379L19.9621 21.4521ZM13.5486 16.4628L18.5486 21.4528L19.9614 20.0372L14.9614 15.0472L13.5486 16.4628ZM13.255 14.965V15.755H15.255V14.965H13.255ZM13.2652 15.3791L13.5352 15.6591L14.9748 14.2709L14.7048 13.9909L13.2652 15.3791ZM9.755 17.255C11.6135 17.255 13.3227 16.5731 14.6369 15.4433L13.3331 13.9267C12.3673 14.7569 11.1165 15.255 9.755 15.255V17.255ZM2.255 9.755C2.255 13.8973 5.61272 17.255 9.755 17.255V15.255C6.71729 15.255 4.255 12.7927 4.255 9.755H2.255ZM9.755 2.255C5.61272 2.255 2.255 5.61272 2.255 9.755H4.255C4.255 6.71729 6.71729 4.255 9.755 4.255V2.255ZM17.255 9.755C17.255 5.61272 13.8973 2.255 9.755 2.255V4.255C12.7927 4.255 15.255 6.71729 15.255 9.755H17.255ZM15.4433 14.6369C16.5731 13.3227 17.255 11.6135 17.255 9.755H15.255C15.255 11.1165 14.7569 12.3673 13.9267 13.3331L15.4433 14.6369ZM15.6591 13.5352L15.3791 13.2652L13.9909 14.7048L14.2709 14.9748L15.6591 13.5352ZM9.755 13.255C7.81729 13.255 6.255 11.6927 6.255 9.755H4.255C4.255 12.7973 6.71272 15.255 9.755 15.255V13.255ZM13.255 9.755C13.255 11.6927 11.6927 13.255 9.755 13.255V15.255C12.7973 15.255 15.255 12.7973 15.255 9.755H13.255ZM9.755 6.255C11.6927 6.255 13.255 7.81729 13.255 9.755H15.255C15.255 6.71272 12.7973 4.255 9.755 4.255V6.255ZM6.255 9.755C6.255 7.81729 7.81729 6.255 9.755 6.255V4.255C6.71272 4.255 4.255 6.71272 4.255 9.755H6.255Z" fill="#791F2E" mask="url(#path-1-inside-1)"/>
</g>
</g>
</svg>
